<?xml version="1.0" encoding="utf-8"?>
<!-- Generator: Adobe Illustrator 22.1.0, SVG Export Plug-In . SVG Version: 6.00 Build 0)  -->
<svg version="1.1" id="Layer_1" xmlns="http://www.w3.org/2000/svg" xmlns:xlink="http://www.w3.org/1999/xlink" x="0px" y="0px"
	 viewBox="0 0 799.5 478.5" style="enable-background:new 0 0 799.5 478.5;" xml:space="preserve">
<style type="text/css">
	.st0{display:none;fill:#FFFFFF;}
	.st1{fill:#84223B;}
	.st2{fill:#939598;}
	.st3{fill:#939598;}
	.st4{fill:#84223B;}
</style>
<rect x="-103.1" y="-236.6" class="st0" width="1000" height="1000"/>
<polygon class="st1" points="72,340.4 72,356.9 49.6,356.9 49.6,424.9 29,424.9 29,356.9 6.6,356.9 6.6,340.4 "/>
<polygon class="st1" points="102.9,409 129.9,409 129.9,424.9 82.3,424.9 82.3,340.4 102.9,340.4 "/>
<polygon class="st2" points="238.5,340.4 238.5,424.9 217.9,424.9 217.9,390.1 185.9,390.1 185.9,424.9 165.3,424.9 165.3,340.4 185.9,340.4 185.9,373.5 217.9,373.5 217.9,340.4 "/>
<g>
	<defs>
		<rect id="SVGID_1_" x="-103.1" y="-236.6" width="1000" height="1000"/>
	</defs>
	<clipPath id="SVGID_2_">
		<use xlink:href="#SVGID_1_"  style="overflow:visible;"/>
	</clipPath>
	<path class="st3" d="M271.5,420.2c-6.6-3.7-11.9-8.9-15.8-15.5c-3.9-6.6-5.8-14.1-5.8-22.3c0-8.3,1.9-15.7,5.8-22.3c3.9-6.6,9.2-11.7,15.8-15.4c6.6-3.7,13.9-5.5,21.9-5.5c7.9,0,15.2,1.8,21.9,5.5c6.6,3.7,11.8,8.8,15.7,15.4c3.8,6.6,5.7,14,5.7,22.3c0,8.3-1.9,15.7-5.8,22.3c-3.9,6.6-9.1,11.8-15.7,15.5c-6.6,3.7-13.8,5.5-21.8,5.5C285.4,425.8,278.1,423.9,271.5,420.2 M309.5,400.2c4.1-4.5,6.1-10.4,6.1-17.8c0-7.5-2-13.4-6.1-17.9c-4.1-4.5-9.5-6.7-16.2-6.7c-6.8,0-12.3,2.2-16.3,6.6c-4.1,4.4-6.1,10.4-6.1,17.9c0,7.5,2,13.4,6.1,17.9c4.1,4.5,9.5,6.7,16.3,6.7C300.1,407,305.5,404.7,309.5,400.2"/>
	<polygon class="st3" points="443.7,340.4 443.7,424.9 423.1,424.9 423.1,374.2 404.2,424.9 387.6,424.9 368.6,374.1 368.6,424.9 348,424.9 348,340.4 372.3,340.4 396,398.9 419.5,340.4 	"/>
	<polygon class="st3" points="479.1,356.9 479.1,374 506.7,374 506.7,389.9 479.1,389.9 479.1,408.4 510.3,408.4 510.3,424.9 458.6,424.9 458.6,340.4 510.3,340.4 510.3,356.9 	"/>
	<path class="st4" d="M610.3,381c-2.2,4.1-5.7,7.3-10.4,9.8c-4.7,2.5-10.4,3.7-17.3,3.7h-12.8v30.4h-20.6v-84.5h33.4c6.7,0,12.4,1.2,17.1,3.5c4.7,2.3,8.1,5.5,10.5,9.6c2.3,4.1,3.5,8.8,3.5,14.1C613.7,372.5,612.5,377,610.3,381 M589.8,375.4c1.9-1.8,2.9-4.5,2.9-7.8c0-3.4-1-6-2.9-7.8c-1.9-1.8-4.9-2.8-8.8-2.8h-11.2v21.2H581C585,378.2,587.9,377.3,589.8,375.4"/>
	<path class="st4" d="M667.5,424.9L649.9,393H645v31.9h-20.6v-84.5H659c6.7,0,12.3,1.2,17,3.5c4.7,2.3,8.2,5.5,10.5,9.6c2.3,4.1,3.5,8.6,3.5,13.5c0,5.6-1.6,10.6-4.8,15.1c-3.2,4.4-7.8,7.5-14,9.4l19.5,33.5H667.5z M645,378.4h12.8c3.8,0,6.6-0.9,8.5-2.8c1.9-1.8,2.8-4.5,2.8-7.8c0-3.2-0.9-5.7-2.8-7.6c-1.9-1.8-4.7-2.8-8.5-2.8H645V378.4z"/>
	<path class="st4" d="M721,420.2c-6.6-3.7-11.9-8.9-15.8-15.5c-3.9-6.6-5.8-14.1-5.8-22.3c0-8.3,1.9-15.7,5.8-22.3c3.9-6.6,9.2-11.7,15.8-15.4c6.6-3.7,13.9-5.5,21.9-5.5c7.9,0,15.2,1.8,21.9,5.5c6.6,3.7,11.8,8.8,15.7,15.4c3.8,6.6,5.7,14,5.7,22.3c0,8.3-1.9,15.7-5.8,22.3c-3.9,6.6-9.1,11.8-15.7,15.5c-6.6,3.7-13.8,5.5-21.8,5.5C734.9,425.8,727.7,423.9,721,420.2 M759.1,400.2c4.1-4.5,6.1-10.4,6.1-17.8c0-7.5-2-13.4-6.1-17.9c-4.1-4.5-9.5-6.7-16.2-6.7c-6.8,0-12.3,2.2-16.3,6.6c-4.1,4.4-6.1,10.4-6.1,17.9c0,7.5,2,13.4,6.1,17.9c4.1,4.5,9.5,6.7,16.3,6.7C749.6,407,755,404.7,759.1,400.2"/>
	<polygon class="st4" points="556.9,169.4 508.3,169.4 474.8,138.4 404,72.9 327,138.4 276.2,138.4 405,28.9 523.3,138.4 	"/>
	<polygon class="st4" points="542.4,250.9 542.4,307.5 389,307.5 389,138.3 420.7,138.3 420.7,275.7 510.6,275.7 510.6,250.9 	"/>
	<rect x="235.8" y="165.5" class="st4" width="139.5" height="31.8"/>
	<polygon class="st4" points="510.6,75.8 476.3,75.8 476.3,104.2 510.6,135.9 	"/>
	<rect x="307.9" y="187.6" class="st4" width="31.8" height="116.7"/>
	<path class="st4" d="M99.9,458.3l-4.5-8h-1.9v8h-4.1v-20.5h7.7c1.6,0,2.9,0.3,4,0.8c1.1,0.6,1.9,1.3,2.5,2.3c0.6,0.9,0.8,2,0.8,3.2c0,1.3-0.4,2.6-1.2,3.6c-0.8,1.1-1.9,1.8-3.5,2.2l4.9,8.3H99.9z M93.5,447.3h3.4c1.1,0,1.9-0.3,2.5-0.8c0.5-0.5,0.8-1.3,0.8-2.2c0-0.9-0.3-1.7-0.8-2.2c-0.5-0.5-1.4-0.8-2.5-0.8h-3.4V447.3z"/>
	<polygon class="st4" points="118.1,441.2 118.1,446.3 125,446.3 125,449.5 118.1,449.5 118.1,455 125.9,455 125.9,458.3 114,458.3 114,437.8 125.9,437.8 125.9,441.2 	"/>
	<polygon class="st4" points="157.8,437.8 157.8,458.3 153.7,458.3 153.7,445 148.2,458.3 145.1,458.3 139.6,445 139.6,458.3 135.5,458.3 135.5,437.8 140.1,437.8 146.6,453.1 153.1,437.8 	"/>
	<path class="st4" d="M171.9,457.2c-1.6-0.9-2.9-2.1-3.8-3.7c-0.9-1.6-1.4-3.4-1.4-5.4c0-2,0.5-3.8,1.4-5.4c0.9-1.6,2.2-2.8,3.8-3.7c1.6-0.9,3.4-1.3,5.3-1.3c1.9,0,3.7,0.4,5.3,1.3c1.6,0.9,2.9,2.1,3.8,3.7c0.9,1.6,1.4,3.4,1.4,5.4c0,2-0.5,3.8-1.4,5.4c-0.9,1.6-2.2,2.8-3.8,3.7c-1.6,0.9-3.4,1.3-5.3,1.3C175.3,458.5,173.5,458.1,171.9,457.2 M180.4,454c0.9-0.6,1.7-1.4,2.2-2.4c0.5-1,0.8-2.2,0.8-3.6c0-1.4-0.3-2.6-0.8-3.6c-0.5-1-1.3-1.8-2.2-2.4c-0.9-0.5-2-0.8-3.3-0.8c-1.2,0-2.3,0.3-3.3,0.8c-0.9,0.5-1.7,1.3-2.2,2.4c-0.5,1-0.8,2.2-0.8,3.6c0,1.4,0.3,2.6,0.8,3.6c0.5,1,1.3,1.8,2.2,2.4c0.9,0.6,2,0.8,3.3,0.8C178.4,454.8,179.5,454.6,180.4,454"/>
	<path class="st4" d="M209.4,439.1c1.6,0.8,2.9,2,3.8,3.6c0.9,1.6,1.3,3.4,1.3,5.4c0,2.1-0.4,3.8-1.3,5.4c-0.9,1.5-2.1,2.7-3.8,3.6c-1.6,0.8-3.5,1.3-5.7,1.3h-7.1v-20.5h7.1C205.8,437.8,207.7,438.3,209.4,439.1 M208.5,453.1c1.2-1.2,1.8-2.8,1.8-5c0-2.1-0.6-3.8-1.8-5c-1.2-1.2-2.8-1.8-5-1.8h-2.9v13.5h2.9C205.7,454.8,207.3,454.2,208.5,453.1"/>
	<polygon class="st4" points="227.5,441.2 227.5,446.3 234.4,446.3 234.4,449.5 227.5,449.5 227.5,455 235.3,455 235.3,458.3 223.4,458.3 223.4,437.8 235.3,437.8 235.3,441.2 	"/>
	<polygon class="st4" points="248.9,455 255.7,455 255.7,458.3 244.8,458.3 244.8,437.8 248.9,437.8 	"/>
	<rect x="277.4" y="434.6" class="st4" width="4.1" height="27.2"/>
	<path class="st4" d="M315.3,458.3l-4.5-8h-1.9v8h-4.1v-20.5h7.7c1.6,0,2.9,0.3,4,0.8c1.1,0.6,1.9,1.3,2.5,2.3c0.6,0.9,0.8,2,0.8,3.2c0,1.3-0.4,2.6-1.2,3.6c-0.8,1.1-1.9,1.8-3.5,2.2l4.9,8.3H315.3z M308.8,447.3h3.4c1.1,0,1.9-0.3,2.5-0.8c0.5-0.5,0.8-1.3,0.8-2.2c0-0.9-0.3-1.7-0.8-2.2c-0.5-0.5-1.4-0.8-2.5-0.8h-3.4V447.3z"/>
	<polygon class="st4" points="333.5,441.2 333.5,446.3 340.4,446.3 340.4,449.5 333.5,449.5 333.5,455 341.2,455 341.2,458.3 329.4,458.3 329.4,437.8 341.2,437.8 341.2,441.2 	"/>
	<polygon class="st4" points="368.3,458.3 364.2,458.3 354.9,444.3 354.9,458.3 350.8,458.3 350.8,437.8 354.9,437.8 364.2,451.9 364.2,437.8 368.3,437.8 	"/>
	<path class="st4" d="M382.4,457.2c-1.6-0.9-2.9-2.1-3.8-3.7c-0.9-1.6-1.4-3.4-1.4-5.4c0-2,0.5-3.8,1.4-5.4c0.9-1.6,2.2-2.8,3.8-3.7c1.6-0.9,3.4-1.3,5.3-1.3c1.9,0,3.7,0.4,5.3,1.3c1.6,0.9,2.9,2.1,3.8,3.7c0.9,1.6,1.4,3.4,1.4,5.4c0,2-0.5,3.8-1.4,5.4c-0.9,1.6-2.2,2.8-3.8,3.7c-1.6,0.9-3.4,1.3-5.3,1.3C385.8,458.5,384,458.1,382.4,457.2 M391,454c0.9-0.6,1.7-1.4,2.2-2.4c0.5-1,0.8-2.2,0.8-3.6c0-1.4-0.3-2.6-0.8-3.6c-0.5-1-1.3-1.8-2.2-2.4c-0.9-0.5-2-0.8-3.3-0.8c-1.2,0-2.3,0.3-3.3,0.8c-0.9,0.5-1.7,1.3-2.2,2.4c-0.5,1-0.8,2.2-0.8,3.6c0,1.4,0.3,2.6,0.8,3.6c0.5,1,1.3,1.8,2.2,2.4c0.9,0.6,2,0.8,3.3,0.8C388.9,454.8,390,454.6,391,454"/>
	<polygon class="st4" points="425.4,437.8 417.9,458.3 413,458.3 405.5,437.8 409.9,437.8 415.5,454.1 421.1,437.8 	"/>
	<path class="st4" d="M446.3,454.4h-8.1l-1.3,3.9h-4.3l7.4-20.5h4.8l7.4,20.5h-4.3L446.3,454.4z M445.2,451.1l-3-8.6l-3,8.6H445.2z"/>
	<polygon class="st4" points="474.5,437.8 474.5,441.2 469.1,441.2 469.1,458.3 465,458.3 465,441.2 459.5,441.2 459.5,437.8 	"/>
	<polygon class="st4" points="487.5,441.2 487.5,446.3 494.3,446.3 494.3,449.5 487.5,449.5 487.5,455 495.2,455 495.2,458.3 483.4,458.3 483.4,437.8 495.2,437.8 495.2,441.2 	"/>
	<rect x="518.1" y="434.6" class="st4" width="4.1" height="27.2"/>
	<path class="st4" d="M555.9,458.3l-4.5-8h-1.9v8h-4.1v-20.5h7.7c1.6,0,2.9,0.3,4,0.8c1.1,0.6,1.9,1.3,2.5,2.3c0.6,0.9,0.8,2,0.8,3.2c0,1.3-0.4,2.6-1.2,3.6c-0.8,1.1-1.9,1.8-3.5,2.2l4.9,8.3H555.9z M549.5,447.3h3.4c1.1,0,1.9-0.3,2.5-0.8c0.5-0.5,0.8-1.3,0.8-2.2c0-0.9-0.3-1.7-0.8-2.2c-0.5-0.5-1.4-0.8-2.5-0.8h-3.4V447.3z"/>
	<polygon class="st4" points="574.1,441.2 574.1,446.3 581,446.3 581,449.5 574.1,449.5 574.1,455 581.9,455 581.9,458.3 570,458.3 570,437.8 581.9,437.8 581.9,441.2 	"/>
	<path class="st4" d="M594.7,457.8c-1.1-0.5-2-1.2-2.7-2.1c-0.7-0.9-1-2-1-3.3h4.4c0.1,0.8,0.4,1.5,0.9,2c0.5,0.5,1.3,0.7,2.2,0.7c1,0,1.7-0.2,2.3-0.7c0.5-0.5,0.8-1.1,0.8-1.8c0-0.6-0.2-1.1-0.6-1.5c-0.4-0.4-0.8-0.7-1.4-0.9c-0.6-0.2-1.3-0.5-2.3-0.7c-1.3-0.4-2.4-0.8-3.2-1.2c-0.8-0.4-1.5-1-2.1-1.7c-0.6-0.8-0.9-1.8-0.9-3.1c0-1.2,0.3-2.3,0.9-3.2c0.6-0.9,1.5-1.6,2.5-2.1c1.1-0.5,2.3-0.7,3.8-0.7c2.1,0,3.8,0.5,5.1,1.5c1.3,1,2,2.5,2.2,4.3H601c0-0.7-0.3-1.3-0.9-1.7c-0.6-0.5-1.3-0.7-2.2-0.7c-0.8,0-1.4,0.2-1.9,0.6c-0.5,0.4-0.7,1-0.7,1.8c0,0.5,0.2,1,0.5,1.4c0.4,0.4,0.8,0.7,1.3,0.9c0.5,0.2,1.3,0.5,2.3,0.8c1.3,0.4,2.4,0.8,3.3,1.2c0.8,0.4,1.6,1,2.2,1.8c0.6,0.8,0.9,1.8,0.9,3.1c0,1.1-0.3,2.1-0.9,3c-0.6,0.9-1.4,1.7-2.5,2.2c-1.1,0.6-2.4,0.8-3.9,0.8C597.1,458.5,595.8,458.3,594.7,457.8"/>
	<polygon class="st4" points="629.1,437.8 629.1,441.2 623.6,441.2 623.6,458.3 619.5,458.3 619.5,441.2 614.1,441.2 614.1,437.8 	"/>
	<path class="st4" d="M642.2,457.2c-1.6-0.9-2.9-2.1-3.8-3.7c-0.9-1.6-1.4-3.4-1.4-5.4c0-2,0.5-3.8,1.4-5.4c0.9-1.6,2.2-2.8,3.8-3.7c1.6-0.9,3.4-1.3,5.3-1.3c1.9,0,3.7,0.4,5.3,1.3c1.6,0.9,2.9,2.1,3.8,3.7c0.9,1.6,1.4,3.4,1.4,5.4c0,2-0.5,3.8-1.4,5.4c-0.9,1.6-2.2,2.8-3.8,3.7c-1.6,0.9-3.4,1.3-5.3,1.3S643.8,458.1,642.2,457.2 M650.7,454c0.9-0.6,1.7-1.4,2.2-2.4c0.5-1,0.8-2.2,0.8-3.6c0-1.4-0.3-2.6-0.8-3.6c-0.5-1-1.3-1.8-2.2-2.4c-0.9-0.5-2-0.8-3.3-0.8c-1.2,0-2.3,0.3-3.3,0.8c-0.9,0.5-1.7,1.3-2.2,2.4c-0.5,1-0.8,2.2-0.8,3.6c0,1.4,0.3,2.6,0.8,3.6c0.5,1,1.3,1.8,2.2,2.4c0.9,0.6,2,0.8,3.3,0.8C648.7,454.8,649.7,454.6,650.7,454"/>
	<path class="st4" d="M677.3,458.3l-4.5-8h-1.9v8h-4.1v-20.5h7.7c1.6,0,2.9,0.3,4,0.8c1.1,0.6,1.9,1.3,2.5,2.3c0.6,0.9,0.8,2,0.8,3.2c0,1.3-0.4,2.6-1.2,3.6c-0.8,1.1-1.9,1.8-3.5,2.2l4.9,8.3H677.3z M670.9,447.3h3.4c1.1,0,1.9-0.3,2.5-0.8c0.5-0.5,0.8-1.3,0.8-2.2c0-0.9-0.3-1.7-0.8-2.2c-0.5-0.5-1.4-0.8-2.5-0.8h-3.4V447.3z"/>
	<polygon class="st4" points="695.5,441.2 695.5,446.3 702.4,446.3 702.4,449.5 695.5,449.5 695.5,455 703.3,455 703.3,458.3 691.4,458.3 691.4,437.8 703.3,437.8 703.3,441.2 	"/>
	<rect x="394.2" y="99.1" class="st4" width="9.1" height="9.1"/>
	<rect x="405.6" y="99.1" class="st4" width="9.1" height="9.1"/>
	<rect x="394.2" y="110.8" class="st4" width="9.1" height="9.1"/>
	<rect x="405.6" y="110.8" class="st4" width="9.1" height="9.1"/>
</g>
</svg>
